<mxfile host="app.diagrams.net" modified="2023-12-20T05:42:14.793Z" agent="Mozilla/5.0 (Windows NT 10.0; Win64; x64) AppleWebKit/537.36 (KHTML, like Gecko) Chrome/120.0.0.0 Safari/537.36 Edg/120.0.0.0" etag="JA8lDO7LRwIx6G91QKqR" version="22.1.11" type="github">
  <diagram name="第 1 页" id="o2SpGZ-mMkRb3rzMGW9M">
    <mxGraphModel dx="1002" dy="543" grid="1" gridSize="10" guides="1" tooltips="1" connect="1" arrows="1" fold="1" page="1" pageScale="1" pageWidth="827" pageHeight="1169" math="0" shadow="0">
      <root>
        <mxCell id="0" />
        <mxCell id="1" parent="0" />
        <mxCell id="5dZKoZ7YltqsxS3y5y46-1" value="群体计算引擎" style="verticalLabelPosition=bottom;aspect=fixed;html=1;shape=mxgraph.salesforce.manufacturing;" vertex="1" parent="1">
          <mxGeometry x="270" y="60" width="60" height="60" as="geometry" />
        </mxCell>
        <mxCell id="5dZKoZ7YltqsxS3y5y46-2" value="信息分析引擎" style="verticalLabelPosition=bottom;aspect=fixed;html=1;shape=mxgraph.salesforce.manufacturing2;" vertex="1" parent="1">
          <mxGeometry x="560" y="130" width="60" height="60" as="geometry" />
        </mxCell>
      </root>
    </mxGraphModel>
  </diagram>
</mxfile>
